:SAMPLES-PER-SECOND 30
:FULLY-SPECIFIED
:DEGREES
443
root  31.1692 31.2343 -17.1289 25.3315 -74.097 -10.8993
RightUpLeg  -18.9763 -5.92053 -2.73853
RightLeg  34.0077 0.31265 0.169427
RightFoot  -18.156 -0.0610293 -0.00440855
RightToes  -44.6387 -0.256559 -0.339798
Spine  7.45455 1.24526 -1.00256
Spine1  13.6937 4.28719 -5.14467
HEad  -9.44305 -12.8053 19.0719
LeftShoulder1  0 -2.42657e-020 -4.95415e-022
LeftArm  -34.3813 12.7115 -73.3426
LeftForeArm  43.8263 -36.6871 -7.5312
LeftHand  -0.039502 -8.62931 0.153732
RightShoulder  0 2.42657e-020 1.07489e-018
RightArm  -19.8029 5.91848 84.3623
RightForeArm  45.1581 26.1119 4.93559
RightHand  -1.84324 21.8492 -9.16111
LeftUpLeg  -28.725 -0.189477 16.4321
LeftLeg  45.7929 5.96703 5.3618
LeftFoot  -15.5706 -0.318069 -2.32609
LeftToes  -5.7805 1.33192e-006 1.13262e-007
444
root  30.2556 30.8278 -17.5922 26.5513 -72.872 -12.2268
RightUpLeg  -18.0277 -9.07032 -1.04921
RightLeg  35.4405 1.97219 1.20504
RightFoot  -20.5012 -0.204451 -0.753004
RightToes  -43.3546 -0.245821 -0.333277
Spine  7.37531 1.99768 -0.388036
Spine1  13.7258 5.6605 -3.72621
HEad  -11.9183 -15.8096 19.6419
LeftShoulder1  0 -2.42657e-020 -4.95415e-022
LeftArm  -36.3788 17.5701 -72.3385
LeftForeArm  43.7056 -38.9938 -8.19264
LeftHand  -0.147785 -7.56528 1.86671
RightShoulder  0 2.42657e-020 1.07489e-018
RightArm  -19.9819 3.1805 78.3363
RightForeArm  46.9286 25.0596 4.70373
RightHand  -2.2199 21.3788 -11.3542
LeftUpLeg  -34.5207 2.42835 15.9907
LeftLeg  55.1055 4.435 5.52871
LeftFoot  -17.4728 -0.356229 -2.31781
LeftToes  -5.24583 1.33192e-006 1.13262e-007
445
root  29.0141 30.8394 -17.8389 22.9487 -70.2814 -8.4014
RightUpLeg  -14.3902 -7.87186 -0.0375177
RightLeg  32.8909 -1.54505 -0.875476
RightFoot  -21.4829 0.0501626 0.641998
RightToes  -38.2822 -0.204908 -0.305214
Spine  6.90716 2.45594 -0.419759
Spine1  13.0277 6.14353 -2.83422
HEad  -13.9422 -20.749 22.0326
LeftShoulder1  0 -2.42657e-020 -4.95415e-022
LeftArm  -36.7019 23.5809 -69.8993
LeftForeArm  41.9305 -41.1651 -8.85986
LeftHand  -0.192986 -7.05048 2.76464
RightShoulder  0 2.42657e-020 1.07489e-018
RightArm  -19.3637 -2.22073 72.8271
RightForeArm  50.4666 24.2517 4.52457
RightHand  -2.63864 21.2899 -13.6053
LeftUpLeg  -39.3408 5.34068 12.4843
LeftLeg  58.2397 3.54471 4.95467
LeftFoot  -16.9259 -0.289711 -1.94694
LeftToes  -8.04383 1.33192e-006 1.13262e-007
446
root  27.6014 31.2263 -17.7634 15.4358 -65.8911 -0.409058
RightUpLeg  -8.27774 -9.11871 -0.764517
RightLeg  26.715 -5.14738 -2.18908
RightFoot  -19.7244 0.260341 1.87505
RightToes  -35.8781 -0.186421 -0.290674
Spine  6.01218 2.31776 -1.41457
Spine1  11.4999 5.35729 -3.65905
HEad  -13.8021 -26.008 25.808
LeftShoulder1  0 -2.42657e-020 -4.95415e-022
LeftArm  -33.9061 30.2138 -64.1615
LeftForeArm  40.2608 -42.5541 -9.31171
LeftHand  -0.174063 -6.40259 2.74434
RightShoulder  0 2.42657e-020 1.07489e-018
RightArm  -16.6148 -10.0041 69.1996
RightForeArm  50.8691 24.6017 4.59852
RightHand  -2.34533 21.8871 -11.7195
LeftUpLeg  -42.7085 6.40506 5.47935
LeftLeg  55.8369 3.00693 3.85356
LeftFoot  -15.5683 -0.195464 -1.4298
LeftToes  -10.7316 1.33192e-006 1.13262e-007
447
root  26.099 31.7917 -17.5158 10.6042 -60.9033 5.20166
RightUpLeg  -1.83198 -10.6456 -1.53829
RightLeg  19.5548 -8.5748 -2.42654
RightFoot  -14.3539 0.23389 2.23494
RightToes  -37.1559 -0.196171 -0.298499
Spine  5.41036 2.34134 -2.73527
Spine1  10.583 5.02014 -5.43754
HEad  -14.288 -31.0099 30.1523
LeftShoulder1  0 -2.42657e-020 -4.95415e-022
LeftArm  -29.5225 34.9906 -55.9041
LeftForeArm  40.3797 -43.1458 -9.50942
LeftHand  -0.16981 -7.46321 2.23528
RightShoulder  0 2.42657e-020 1.07489e-018
RightArm  -12.8202 -18.5224 67.1769
RightForeArm  50.4783 27.9468 5.33647
RightHand  -2.21739 22.3272 -10.8347
LeftUpLeg  -44.3401 6.75851 -2.26112
LeftLeg  49.4879 1.96895 2.01659
LeftFoot  -12.0394 -0.067433 -0.639471
LeftToes  -15.3482 1.33192e-006 1.13262e-007
448
root  24.5997 32.2707 -17.2931 9.23148 -56.8396 6.91168
RightUpLeg  0.951565 -12.6943 -1.36104
RightLeg  18.9034 -9.50118 -2.56983
RightFoot  -7.51845 0.0600806 1.29205
RightToes  -45.2179 -0.261449 -0.34266
Spine  5.57628 2.63802 -3.34512
Spine1  10.9461 5.58272 -6.44297
HEad  -17.5218 -34.1794 35.1461
LeftShoulder1  0 -2.42657e-020 -4.95415e-022
LeftArm  -29.2539 37.0569 -49.9001
LeftForeArm  41.9107 -42.5338 -9.30276
LeftHand  -0.172786 -8.22683 2.03401
RightShoulder  0 2.42657e-020 1.07489e-018
RightArm  -8.35308 -25.8663 64.8806
RightForeArm  51.1627 35.4621 7.1872
RightHand  -2.52453 22.1509 -12.4784
LeftUpLeg  -44.5722 8.5427 -9.12235
LeftLeg  41.1631 -0.261108 -0.205768
LeftFoot  -6.09521 -0.000496295 -0.00933073
LeftToes  -22.2645 1.33192e-006 1.13262e-007
449
root  23.1618 32.646 -17.0961 10.0931 -53.6375 6.35263
RightUpLeg  0.0336195 -14.6512 -0.455125
RightLeg  23.7821 -8.07036 -2.94234
RightFoot  -0.766481 -0.00196896 0.0832629
RightToes  -52.2429 -0.322903 -0.373347
Spine  5.65155 2.5663 -3.41785
Spine1  11.1104 5.39251 -6.49138
HEad  -19.2357 -36.4034 38.2844
LeftShoulder1  0 -2.42657e-020 -4.95415e-022
LeftArm  -31.8203 39.8201 -47.5876
LeftForeArm  42.4315 -41.7399 -9.04275
LeftHand  -0.261056 -7.56925 3.57817
RightShoulder  0 2.42657e-020 1.07489e-018
RightArm  -3.46076 -29.1961 62.5429
RightForeArm  52.33 38.5784 8.0585
RightHand  -2.96221 21.7679 -14.9515
LeftUpLeg  -44.2438 11.9886 -15.7616
LeftLeg  31.6115 -5.82329 -3.08279
LeftFoot  0.729052 0.000883292 -0.138843
LeftToes  -34.0879 1.33192e-006 1.13262e-007
450
root  21.8176 32.7391 -16.9078 11.1551 -51.3086 5.49272
RightUpLeg  -4.32482 -15.1955 0.0130974
RightLeg  34.7781 -3.22209 -1.95542
RightFoot  3.17106 0.0178522 -0.267338
RightToes  -47.6174 -0.282011 -0.353987
Spine  5.73776 2.24035 -3.37905
Spine1  11.2931 4.68672 -6.34959
HEad  -19.8553 -38.0455 40.4471
LeftShoulder1  0 -2.42657e-020 -4.95415e-022
LeftArm  -32.3131 42.9291 -46.5111
LeftForeArm  41.9929 -41.1892 -8.8674
LeftHand  -0.253347 -7.56925 3.46164
RightShoulder  0 2.42657e-020 1.07489e-018
RightArm  -3.4487 -29.3211 62.1532
RightForeArm  53.3007 38.8242 8.1286
RightHand  -2.86774 21.942 -14.3489
LeftUpLeg  -44.5271 15.1122 -22.0009
LeftLeg  25.6461 -14.713 -5.85138
LeftFoot  9.85457 0.246549 -2.85928
LeftToes  -41.5425 1.33192e-006 1.13262e-007
451
root  20.3851 32.4405 -16.7114 11.5109 -49.565 4.04851
RightUpLeg  -8.49304 -12.4921 0.349494
RightLeg  47.4835 2.08937 1.96346
RightFoot  3.30218 0.00845397 0.0842453
RightToes  -41.355 -0.229397 -0.322648
Spine  6.36121 1.93608 -3.09077
Spine1  12.5397 4.0387 -5.67156
HEad  -21.2976 -38.3469 42.1882
LeftShoulder1  0 -2.42657e-020 -4.95415e-022
LeftArm  -31.3975 44.6028 -46.5934
LeftForeArm  46.413 -40.6214 -8.68221
LeftHand  -0.157109 -8.84996 1.66138
RightShoulder  0 2.42657e-020 1.07489e-018
RightArm  -7.63157 -27.3893 63.0943
RightForeArm  50.2641 37.9436 7.87863
RightHand  -2.45162 21.4351 -12.5339
LeftUpLeg  -44.0554 13.9386 -23.0571
LeftLeg  26.42 -20.2624 -8.26122
LeftFoot  18.4619 1.20467 -7.40246
LeftToes  -30.9705 1.33192e-006 1.13262e-007
452
root  18.8796 31.7404 -16.4129 10.4574 -49.397 2.77887
RightUpLeg  -11.6643 -9.09359 -0.7511
RightLeg  59.7599 2.87539 4.18014
RightFoot  -1.44321 -0.00739719 -0.209858
RightToes  -44.4868 -0.255281 -0.339039
Spine  7.2131 1.76175 -2.86378
Spine1  14.2211 3.66671 -5.07682
HEad  -20.7763 -37.7868 41.6377
LeftShoulder1  0 -2.42657e-020 -4.95415e-022
LeftArm  -30.5602 46.0052 -48.2519
LeftForeArm  51.2281 -40.3755 -8.59682
LeftHand  -0.0375667 -10.5261 0.0378921
RightShoulder  0 2.42657e-020 1.07489e-018
RightArm  -13.6407 -23.1641 64.8079
RightForeArm  48.9306 34.4278 6.91704
RightHand  -2.34473 20.856 -12.3237
LeftUpLeg  -41.4748 9.48678 -19.5506
LeftLeg  29.902 -15.9398 -7.70626
LeftFoot  9.55875 0.263447 -3.15013
LeftToes  23.4543 1.33192e-006 1.13262e-007
453
root  17.6035 30.8396 -16.1822 9.80099 -50.6988 1.74135
RightUpLeg  -16.7988 -6.15085 -3.4551
RightLeg  71.1374 1.46073 3.33115
RightFoot  -3.94345 -0.0246182 -0.337593
RightToes  -42.6203 -0.239747 -0.329441
Spine  7.49329 1.28935 -2.80341
Spine1  14.7531 2.73193 -4.93234
HEad  -16.94 -36.3131 38.7199
LeftShoulder1  0 -2.42657e-020 -4.95415e-022
LeftArm  -31.3943 48.4512 -52.1755
LeftForeArm  53.9293 -40.1582 -8.52413
LeftHand  0.202913 -11.1764 -2.44508
RightShoulder  0 2.42657e-020 1.07489e-018
RightArm  -20.1022 -16.37 67.1045
RightForeArm  52.3642 27.5691 5.24737
RightHand  -2.52532 20.8087 -13.3242
LeftUpLeg  -41.893 3.67536 -15.6781
LeftLeg  36.6952 -6.72024 -4.35276
LeftFoot  -0.270444 -0.000153005 -0.0648389
LeftToes  18.6875 1.33192e-006 1.13262e-007
454
root  16.5058 30.2997 -16.1808 8.62338 -51.179 2.34724
RightUpLeg  -23.1344 -3.77397 -7.09053
RightLeg  78.25 0.0870537 -0.00561979
RightFoot  -6.05772 -0.0227187 -0.051817
RightToes  -35.7809 -0.185687 -0.29007
Spine  7.97027 0.474564 -2.88466
Spine1  15.6603 1.38189 -5.51498
HEad  -15.5031 -33.4221 37.5983
LeftShoulder1  0 -2.42657e-020 -4.95415e-022
LeftArm  -38.223 45.8915 -58.9059
LeftForeArm  58.5984 -36.672 -7.49738
LeftHand  0.426741 -12.1807 -4.37031
RightShoulder  0 2.42657e-020 1.07489e-018
RightArm  -25.5173 -9.05631 70.176
RightForeArm  54.7255 22.0643 4.05888
RightHand  -2.67507 20.8515 -14.098
LeftUpLeg  -44.7404 1.0439 -13.8105
LeftLeg  45.6987 -3.58075 -3.22698
LeftFoot  -4.5473 0.0119507 0.300987
LeftToes  16.5493 1.33192e-006 1.13262e-007
455
root  15.4423 30.0222 -16.1283 7.99666 -52.0727 1.42189
RightUpLeg  -28.2529 -1.57741 -10.1102
RightLeg  79.7904 -0.856821 -3.82667
RightFoot  -9.25877 0.0224276 0.65457
RightToes  -28.8721 -0.136232 -0.244051
Spine  8.99312 0.670116 -2.63179
Spine1  17.4512 2.19792 -5.60611
HEad  -15.0471 -32.2292 37.6006
LeftShoulder1  0 -2.42657e-020 -4.95415e-022
LeftArm  -40.9783 39.7205 -64.6472
LeftForeArm  60.9553 -36.0447 -7.31896
LeftHand  0.41894 -12.4044 -4.22588
RightShoulder  0 2.42657e-020 1.07489e-018
RightArm  -27.4206 -4.71843 72.4537
RightForeArm  52.8438 22.6724 4.18825
RightHand  -2.64986 20.7576 -14.0287
LeftUpLeg  -44.6013 3.49956 -12.5601
LeftLeg  50.4833 -3.97366 -4.22823
LeftFoot  -8.09866 0.053207 0.751576
LeftToes  15.6113 1.33192e-006 1.13262e-007
456
root  14.575 30.0326 -16.1713 8.74438 -51.6036 0.335999
RightUpLeg  -33.2793 -1.73935 -12.3721
RightLeg  76.1659 -2.56668 -8.33406
RightFoot  -11.1582 0.140206 1.81291
RightToes  -21.8455 -0.0919836 -0.191492
Spine  9.33606 0.62199 -2.31507
Spine1  17.9318 2.46689 -5.817
HEad  -12.7056 -32.0477 37.0138
LeftShoulder1  0 -2.42657e-020 -4.95415e-022
LeftArm  -33.4926 33.9588 -67.6048
LeftForeArm  55.4225 -37.0514 -7.6107
LeftHand  0.321405 -11.0755 -3.68634
RightShoulder  0 2.42657e-020 1.07489e-018
RightArm  -26.2544 -1.85721 74.673
RightForeArm  49.863 23.8333 4.43691
RightHand  -2.5799 20.6924 -13.6969
LeftUpLeg  -43.9945 3.30293 -10.8306
LeftLeg  51.8601 -3.84117 -4.28952
LeftFoot  -9.81812 0.0808188 0.940932
LeftToes  13.146 1.33192e-006 1.13262e-007
457
root  13.7994 30.3687 -16.3046 10.2543 -50.5745 -1.06494
RightUpLeg  -36.7278 -1.75338 -13.3333
RightLeg  67.3162 -5.65464 -11.3705
RightFoot  -11.2034 0.225447 2.67601
RightToes  -16.9327 -0.0650278 -0.151714
Spine  9.3722 0.661892 -1.87094
Spine1  17.8798 2.75907 -5.6923
HEad  -10.5354 -32.215 36.3035
LeftShoulder1  0 -2.42657e-020 -4.95415e-022
LeftArm  -25.657 28.0287 -69.9518
LeftForeArm  50.2324 -39.6031 -8.36324
LeftHand  0.213371 -10.6248 -2.66604
RightShoulder  0 2.42657e-020 1.07489e-018
RightArm  -22.809 -0.108527 76.2241
RightForeArm  48.6521 25.4561 4.78667
RightHand  -2.62703 20.5596 -14.045
LeftUpLeg  -42.9901 1.57522 -8.4623
LeftLeg  51.013 -3.35994 -3.6458
LeftFoot  -9.89185 0.0721634 0.833871
LeftToes  10.8612 1.33192e-006 1.13262e-007
